<svg xmlns="http://www.w3.org/2000/svg" width="72.82" height="72.817" viewBox="0 0 72.82 72.817">
  <g id="Group_461" data-name="Group 461" transform="translate(-5620 -1574)">
    <rect id="Rectangle_961" data-name="Rectangle 961" width="72.82" height="72.817" rx="36.408" transform="translate(5620 1574)" fill="#fff"/>
    <path id="love" d="M27.9,1.917a10.2,10.2,0,0,0-8.767,5.26,10.2,10.2,0,0,0-8.767-5.26A10.84,10.84,0,0,0,0,13.155C0,20.4,7.632,28.319,14.031,33.687a7.929,7.929,0,0,0,10.2,0C30.631,28.319,38.26,20.4,38.26,13.155A10.84,10.84,0,0,0,27.9,1.917Z" transform="translate(5637.005 1592.083)" fill="#ec028b"/>
  </g>
</svg>
