<svg xmlns="http://www.w3.org/2000/svg" width="72.82" height="72.817" viewBox="0 0 72.82 72.817">
  <g id="Group_461" data-name="Group 461" transform="translate(-5677 -1685)">
    <rect id="Rectangle_962" data-name="Rectangle 962" width="72.82" height="72.817" rx="36.408" transform="translate(5677 1685)" fill="#fff"/>
    <path id="Message" d="M27.493,0H5.5A5.5,5.5,0,0,0,0,5.5v16.5a5.5,5.5,0,0,0,5.5,5.5H9.485L15.6,32.666a1.375,1.375,0,0,0,1.776,0l6.127-5.173h3.986a5.5,5.5,0,0,0,5.5-5.5V5.5A5.5,5.5,0,0,0,27.493,0ZM9.623,6.873H16.5a1.375,1.375,0,0,1,0,2.749H9.623a1.375,1.375,0,1,1,0-2.749ZM23.369,20.62H9.623a1.375,1.375,0,1,1,0-2.749H23.369a1.375,1.375,0,0,1,0,2.749Zm0-5.5H9.623a1.375,1.375,0,1,1,0-2.749H23.369a1.375,1.375,0,0,1,0,2.749Z" transform="translate(5697 1705)" fill="#50a4fe"/>
  </g>
</svg>
