<svg xmlns="http://www.w3.org/2000/svg" width="61.005" height="61.003" viewBox="0 0 61.005 61.003">
  <g id="Group_461" data-name="Group 461" transform="translate(-5570 -1704)">
    <rect id="Rectangle_960" data-name="Rectangle 960" width="61.005" height="61.003" rx="30.501" transform="translate(5570 1704)" fill="#fff"/>
    <path id="credit" d="M22.186,0H5.838A5.84,5.84,0,0,0,0,5.838V17.515a5.84,5.84,0,0,0,5.838,5.838H8.08l4.379,3.69a2.341,2.341,0,0,0,1.565.6,2.232,2.232,0,0,0,1.506-.56l4.5-3.713h2.16a5.84,5.84,0,0,0,5.838-5.838V5.838A5.84,5.84,0,0,0,22.186,0ZM15.623,17.515H15.18a1.168,1.168,0,1,1-2.335,0h-.315a3.511,3.511,0,0,1-3.036-1.752,1.17,1.17,0,0,1,2.02-1.179,1.172,1.172,0,0,0,1.016.584h3.083a.729.729,0,0,0,.117-1.448l-3.842-.642a3.063,3.063,0,0,1,.5-6.084h.444a1.168,1.168,0,1,1,2.335,0h.315a3.511,3.511,0,0,1,3.036,1.752A1.17,1.17,0,1,1,16.5,9.925a1.172,1.172,0,0,0-1.016-.584H12.4a.729.729,0,0,0-.117,1.448l3.83.642a3.063,3.063,0,0,1-.5,6.084Z" transform="translate(5586 1721)" fill="#fdcf4e"/>
  </g>
</svg>
