<svg xmlns="http://www.w3.org/2000/svg" width="61.005" height="61.003" viewBox="0 0 61.005 61.003">
  <g id="Group_461" data-name="Group 461" transform="translate(-5554 -1704)">
    <rect id="Rectangle_960" data-name="Rectangle 960" width="61.005" height="61.003" rx="30.501" transform="translate(5554 1704)" fill="#fff"/>
    <path id="gift" d="M2.3,16.123H12.668V27.639H2.3ZM14.971,27.639H25.335V16.123H14.971ZM27.639,11.516v2.3H14.971V10.31c-.375.033-.758.054-1.152.054s-.776-.021-1.152-.054v3.509H0v-2.3A3.455,3.455,0,0,1,3.455,8.061H7.064A7.54,7.54,0,0,1,4.606,2.3h2.3c0,3.318,2.27,4.96,4.781,5.528a10.64,10.64,0,0,1-1.327-4.376,3.455,3.455,0,1,1,6.91,0,10.64,10.64,0,0,1-1.327,4.376c2.512-.568,4.781-2.21,4.781-5.528h2.3a7.54,7.54,0,0,1-2.458,5.758h3.609A3.455,3.455,0,0,1,27.639,11.516ZM12.668,3.455a8.879,8.879,0,0,0,1.152,3.47,8.879,8.879,0,0,0,1.152-3.47,1.152,1.152,0,1,0-2.3,0Z" transform="translate(5571 1721)" fill="#fc6667"/>
  </g>
</svg>
