<svg xmlns="http://www.w3.org/2000/svg" width="20.55" height="20.55" viewBox="0 0 20.55 20.55">
  <path id="key" d="M18.769,0H16.915A2.542,2.542,0,0,0,15.1.75L7.967,7.887a6.434,6.434,0,1,0,4.622,4.622l1.058-1.058V9.39h2.561V6.829h2.061l1.457-1.457a2.546,2.546,0,0,0,.75-1.811V1.707A1.707,1.707,0,0,0,18.769,0Zm0,3.56a.854.854,0,0,1-.25.6l-.957.957H14.5V7.683H11.94v3.06l-1.319,1.319a4.814,4.814,0,0,1,.465,2.023A4.695,4.695,0,1,1,6.391,9.39a3.616,3.616,0,0,1,2.022.464l7.9-7.9a.861.861,0,0,1,.6-.25h1.854ZM4.257,15.365a.854.854,0,1,0,.854-.854A.854.854,0,0,0,4.257,15.365Z" transform="translate(0.074 0)" fill="#50a4fe"/>
</svg>
