<svg id="mode-landscape" xmlns="http://www.w3.org/2000/svg" width="20.551" height="20.551" viewBox="0 0 20.551 20.551">
  <ellipse id="Ellipse_16" data-name="Ellipse 16" cx="2.141" cy="2.141" rx="2.141" ry="2.141" transform="translate(11.56 4.719)" fill="#ff2a2a"/>
  <path id="Path_201" data-name="Path 201" d="M21.994,16a.856.856,0,0,0-.856.856v1.713a2.569,2.569,0,0,1-2.569,2.569H16.856a.856.856,0,0,0,0,1.713h1.713a4.287,4.287,0,0,0,4.281-4.281V16.856A.856.856,0,0,0,21.994,16Z" transform="translate(-2.3 -2.3)" fill="#ff2a2a"/>
  <path id="Path_202" data-name="Path 202" d="M.856,6.85a.856.856,0,0,0,.856-.856V4.281A2.569,2.569,0,0,1,4.281,1.713H5.994A.856.856,0,0,0,5.994,0H4.281A4.287,4.287,0,0,0,0,4.281V5.994A.856.856,0,0,0,.856,6.85Z" fill="#ff2a2a"/>
  <path id="Path_203" data-name="Path 203" d="M5.994,21.138H4.281a2.569,2.569,0,0,1-2.569-2.569V16.856a.856.856,0,1,0-1.713,0v1.713A4.287,4.287,0,0,0,4.281,22.85H5.994a.856.856,0,0,0,0-1.713Z" transform="translate(0 -2.3)" fill="#ff2a2a"/>
  <path id="Path_204" data-name="Path 204" d="M18.569,0H16.856a.856.856,0,0,0,0,1.713h1.713a2.569,2.569,0,0,1,2.569,2.569V5.994a.856.856,0,1,0,1.713,0V4.281A4.287,4.287,0,0,0,18.569,0Z" transform="translate(-2.3)" fill="#ff2a2a"/>
  <path id="Path_205" data-name="Path 205" d="M16.593,16.076l-6.5-6.5a2.569,2.569,0,0,0-3.632,0L4.5,11.544A1.713,1.713,0,0,0,4,12.755v2.214a2.569,2.569,0,0,0,2.569,2.569h9.419a.856.856,0,0,0,.605-1.462Z" transform="translate(-0.575 -1.269)" fill="#ff2a2a"/>
</svg>
