<svg xmlns="http://www.w3.org/2000/svg" width="19.436" height="19.649" viewBox="0 0 19.436 19.649">
  <path id="user-gear" d="M12.28,4.912A4.912,4.912,0,1,0,7.368,9.824,4.917,4.917,0,0,0,12.28,4.912ZM7.368,7.368A2.456,2.456,0,1,1,9.824,4.912,2.459,2.459,0,0,1,7.368,7.368Zm-.01,5.169a1.227,1.227,0,0,1-1.067,1.37,4.54,4.54,0,0,0-3.836,4.513,1.228,1.228,0,0,1-2.456,0,7.027,7.027,0,0,1,5.988-6.949,1.228,1.228,0,0,1,1.371,1.067ZM18.83,15.144l-.522-.308a3.8,3.8,0,0,0,0-1.839l.522-.308a1.228,1.228,0,1,0-1.247-2.116l-.531.313a4.075,4.075,0,0,0-1.5-.854V9.414a1.228,1.228,0,0,0-2.456,0v.618a4.075,4.075,0,0,0-1.5.854l-.531-.313A1.228,1.228,0,1,0,9.823,12.69l.522.308a3.8,3.8,0,0,0,0,1.839l-.522.308A1.228,1.228,0,1,0,11.07,17.26l.531-.313a4.075,4.075,0,0,0,1.5.854v.618a1.228,1.228,0,0,0,2.456,0V17.8a4.075,4.075,0,0,0,1.5-.854l.531.313a1.228,1.228,0,1,0,1.247-2.116Zm-4.5,0a1.228,1.228,0,1,1,1.228-1.228A1.23,1.23,0,0,1,14.327,15.145Z" transform="translate(0.001)" fill="#fdcf4e"/>
</svg>
