<svg xmlns="http://www.w3.org/2000/svg" width="19.648" height="19.649" viewBox="0 0 19.648 19.649">
  <path id="user-pen" d="M7.368,9.824A4.912,4.912,0,1,0,2.456,4.912,4.917,4.917,0,0,0,7.368,9.824Zm0-7.368A2.456,2.456,0,1,1,4.912,4.912,2.459,2.459,0,0,1,7.368,2.456ZM9.006,14.2a4.929,4.929,0,0,0-6.552,4.3A1.227,1.227,0,0,1,1.23,19.649c-.027,0-.054,0-.082,0A1.227,1.227,0,0,1,0,18.34a7.385,7.385,0,0,1,9.822-6.458A1.228,1.228,0,1,1,9.007,14.2Zm10.037-1.085-5.5,5.5a3.547,3.547,0,0,1-2.509,1.039h-.782a.409.409,0,0,1-.409-.409v-.782a3.549,3.549,0,0,1,1.039-2.508l5.574-5.574a1.882,1.882,0,0,1,2.791.144,1.956,1.956,0,0,1-.206,2.593Z" transform="translate(-0.001)" fill="#f74573"/>
</svg>
