<svg xmlns="http://www.w3.org/2000/svg" width="24" height="24" viewBox="0 0 24 24">
  <path id="coins" d="M9,4c0-2.209,3.358-4,7.5-4S24,1.791,24,4s-3.358,4-7.5,4S9,6.209,9,4Zm7.5,6a13.222,13.222,0,0,1-2.891-.315A10.5,10.5,0,0,0,7.5,8C3.358,8,0,9.791,0,12s3.358,4,7.5,4S15,14.209,15,12c0-.029-.007-.057-.008-.086H15V14c0,2.209-3.358,4-7.5,4S0,16.209,0,14v2c0,2.209,3.358,4,7.5,4S15,18.209,15,16v2c0,2.209-3.358,4-7.5,4S0,20.209,0,18v2c0,2.209,3.358,4,7.5,4S15,22.209,15,20v-.08a14.074,14.074,0,0,0,1.5.08c4.142,0,7.5-1.791,7.5-4V14c0,2.119-3.092,3.849-7,3.987v-2c3.908-.138,7-1.867,7-3.987V10c0,2.119-3.092,3.849-7,3.987v-2c3.908-.138,7-1.867,7-3.987V6C24,8.209,20.642,10,16.5,10Z" fill="#fdcf4e"/>
</svg>
