<svg xmlns="http://www.w3.org/2000/svg" width="24.01" height="18.691" viewBox="0 0 24.01 18.691">
  <g id="eye" transform="translate(0 -56.735)">
    <circle id="Ellipse_19" data-name="Ellipse 19" cx="4" cy="4" r="4" transform="translate(8.005 62.08)" fill="#2ea4fc"/>
    <path id="Path_200" data-name="Path 200" d="M23.277,63.5c-1.551-2.526-5.079-6.764-11.271-6.764S2.285,60.973.734,63.5a4.908,4.908,0,0,0,0,5.162c1.551,2.526,5.079,6.764,11.271,6.764s9.72-4.238,11.271-6.764A4.908,4.908,0,0,0,23.277,63.5ZM12.005,72.081a6,6,0,1,1,6-6A6,6,0,0,1,12.005,72.081Z" transform="translate(0)" fill="#2ea4fc"/>
  </g>
</svg>
