<svg xmlns="http://www.w3.org/2000/svg" width="24" height="23.997" viewBox="0 0 24 23.997">
  <g id="link" transform="translate(0.002)">
    <path id="Path_203" data-name="Path 203" d="M7.252,24A7.25,7.25,0,0,1,2.124,11.619L6.19,7.55,8.312,9.67,4.245,13.74a4.253,4.253,0,0,0,6.015,6.013l4.067-4.067,2.121,2.121-4.067,4.067A7.228,7.228,0,0,1,7.252,24Z" transform="translate(0 -0.001)" fill="#ed0789"/>
    <path id="Path_204" data-name="Path 204" d="M17.807,16.45l-2.121-2.121,4.067-4.067a4.253,4.253,0,1,0-6.014-6.016L9.669,8.313,7.548,6.191l4.07-4.067A7.253,7.253,0,1,1,21.874,12.382Z" transform="translate(-0.001 0)" fill="#ed0789"/>
    <rect id="Rectangle_954" data-name="Rectangle 954" width="9.59" height="3" transform="translate(7.547 14.329) rotate(-45)" fill="#ed0789"/>
  </g>
</svg>
