<svg xmlns="http://www.w3.org/2000/svg" width="23.987" height="26.66" viewBox="0 0 23.987 26.66">
  <g id="settings" transform="translate(-25.66)">
    <path id="Path_205" data-name="Path 205" d="M26.109,19.995a3.332,3.332,0,0,0,4.551,1.224l0,0,.494-.285a9.972,9.972,0,0,0,3.164,1.826v.57a3.332,3.332,0,0,0,6.665,0v-.57a9.971,9.971,0,0,0,3.164-1.828l.5.287a3.334,3.334,0,0,0,3.332-5.776h0l-.493-.284a10.109,10.109,0,0,0,0-3.655l.493-.284A3.334,3.334,0,0,0,44.647,5.44l-.494.285A9.972,9.972,0,0,0,40.987,3.9v-.57a3.332,3.332,0,0,0-6.665,0V3.9a9.971,9.971,0,0,0-3.164,1.828l-.5-.288a3.334,3.334,0,1,0-3.332,5.776h0l.493.284a10.109,10.109,0,0,0,0,3.655l-.493.284A3.339,3.339,0,0,0,26.109,19.995ZM37.654,8.887a4.443,4.443,0,1,1-4.443,4.443A4.443,4.443,0,0,1,37.654,8.887Z" transform="translate(0 0)" fill="#d96852"/>
  </g>
</svg>
