<svg xmlns="http://www.w3.org/2000/svg" width="62.225" height="62.224" viewBox="0 0 62.225 62.224">
  <path id="coins" d="M23.334,10.371C23.334,4.644,32.04,0,42.779,0S62.225,4.644,62.225,10.371,53.518,20.741,42.779,20.741,23.334,16.1,23.334,10.371ZM42.779,25.927a34.282,34.282,0,0,1-7.5-.817c-3.523-2.642-9.3-4.369-15.839-4.369C8.706,20.741,0,25.385,0,31.112S8.706,41.483,19.445,41.483,38.89,36.839,38.89,31.112c0-.075-.018-.148-.021-.223h.021V36.3c0,5.727-8.706,10.371-19.445,10.371S0,42.025,0,36.3v5.185C0,47.21,8.706,51.854,19.445,51.854S38.89,47.21,38.89,41.483v5.185c0,5.727-8.706,10.371-19.445,10.371S0,52.4,0,46.668v5.185c0,5.727,8.706,10.371,19.445,10.371S38.89,57.581,38.89,51.854v-.207a36.489,36.489,0,0,0,3.889.207c10.739,0,19.445-4.644,19.445-10.371V36.3c0,5.494-8.017,9.979-18.149,10.337V41.449c10.132-.358,18.149-4.841,18.149-10.337V25.927c0,5.494-8.017,9.979-18.149,10.337V31.079c10.132-.358,18.149-4.841,18.149-10.337V15.556C62.225,21.283,53.518,25.927,42.779,25.927Z" fill="#ffbc00"/>
</svg>
