<svg xmlns="http://www.w3.org/2000/svg" width="61.005" height="61.003" viewBox="0 0 61.005 61.003">
  <g id="Group_458" data-name="Group 458" transform="translate(-242.412 -628)">
    <rect id="Rectangle_906" data-name="Rectangle 906" width="61.005" height="61.003" rx="30.501" transform="translate(242.412 628)" fill="#fff"/>
    <path id="usd-circle" d="M13.864,0A13.88,13.88,0,0,0,0,13.864c.7,18.368,27.036,18.363,27.729,0A13.88,13.88,0,0,0,13.864,0ZM15.02,19.641V20.8a1.156,1.156,0,0,1-2.311,0V19.641H12.4a3.478,3.478,0,0,1-3-1.732,1.155,1.155,0,0,1,2-1.158,1.159,1.159,0,0,0,1,.579h2.62c1.152.075,1.667-1.791.411-2.033l-3.513-.586c-4.046-.75-3.175-6.647.791-6.624V6.932a1.156,1.156,0,0,1,2.311,0V8.088h.31a3.479,3.479,0,0,1,3,1.733,1.155,1.155,0,1,1-2,1.157,1.16,1.16,0,0,0-1-.578h-2.62c-1.152-.075-1.666,1.791-.411,2.033l3.513.586c4.046.75,3.175,6.647-.791,6.624Z" transform="translate(259.412 644)" fill="#fdcf4e"/>
  </g>
</svg>
