<svg xmlns="http://www.w3.org/2000/svg" width="61.005" height="61.003" viewBox="0 0 61.005 61.003">
  <g id="Group_456" data-name="Group 456" transform="translate(-71 -628)">
    <rect id="Rectangle_833" data-name="Rectangle 833" width="61.005" height="61.003" rx="30.501" transform="translate(71 628)" fill="#fff"/>
    <path id="gift" d="M2.3,17.274H12.668V27.639H8.061A5.758,5.758,0,0,1,2.3,21.881Zm25.335-4.606a2.3,2.3,0,0,1-2.3,2.3H14.971V10.315c-.387.03-.773.05-1.152.05s-.765-.02-1.152-.05v4.656H2.3a2.3,2.3,0,0,1-2.3-2.3A4.606,4.606,0,0,1,4.606,8.061h2a5.916,5.916,0,0,1-2-4.606,1.152,1.152,0,0,1,2.3,0c0,3.02,2.73,4.065,4.807,4.423a10.747,10.747,0,0,1-1.352-4.423,3.455,3.455,0,1,1,6.91,0,10.747,10.747,0,0,1-1.352,4.423c2.076-.358,4.807-1.4,4.807-4.423a1.152,1.152,0,1,1,2.3,0,5.916,5.916,0,0,1-2,4.606h2A4.606,4.606,0,0,1,27.639,12.668ZM12.668,3.455a8.879,8.879,0,0,0,1.152,3.47,8.879,8.879,0,0,0,1.152-3.47,1.152,1.152,0,1,0-2.3,0Zm2.3,24.184h4.606a5.758,5.758,0,0,0,5.758-5.758V17.274H14.971Z" transform="translate(87 644)" fill="#f74573"/>
  </g>
</svg>
