<svg xmlns="http://www.w3.org/2000/svg" width="23.034" height="27.641" viewBox="0 0 23.034 27.641">
  <path id="Path_1" data-name="Path 1" d="M62.246,9.7V8.062a8.062,8.062,0,1,0-16.124,0V9.7a5.759,5.759,0,0,0-3.455,5.27v6.91a5.765,5.765,0,0,0,5.759,5.759H59.943A5.766,5.766,0,0,0,65.7,21.883v-6.91A5.758,5.758,0,0,0,62.246,9.7Zm-6.91,9.877a1.152,1.152,0,1,1-2.3,0v-2.3a1.152,1.152,0,1,1,2.3,0ZM59.943,9.214H48.426V8.062a5.759,5.759,0,1,1,11.517,0Z" transform="translate(-42.667)" fill="#2ea4fc"/>
</svg>
