<svg xmlns="http://www.w3.org/2000/svg" width="72.82" height="72.817" viewBox="0 0 72.82 72.817">
  <g id="Group_457" data-name="Group 457" transform="translate(-150.706 -616)">
    <rect id="Rectangle_905" data-name="Rectangle 905" width="72.82" height="72.817" rx="36.408" transform="translate(150.706 616)" fill="#fff"/>
    <path id="comment-alt-middle" d="M16.742,32.991a2.8,2.8,0,0,1-1.865-.708l-5.225-4.4H5.576A5.582,5.582,0,0,1,0,22.306V5.576A5.582,5.582,0,0,1,5.576,0H27.882a5.582,5.582,0,0,1,5.576,5.576V22.306a5.582,5.582,0,0,1-5.576,5.576H23.906l-5.363,4.433A2.7,2.7,0,0,1,16.742,32.991Z" transform="translate(170.706 636)" fill="#50a4fe"/>
  </g>
</svg>
