<svg xmlns="http://www.w3.org/2000/svg" width="109.342" height="109.342" viewBox="0 0 109.342 109.342">
  <g id="Group_461" data-name="Group 461" transform="translate(-133 -125.802)">
    <g id="pxfuel" transform="translate(133 125.802)" fill="#f5f5f5" stroke="#fff" stroke-width="5">
      <rect width="109.342" height="109.342" rx="54.671" stroke="none"/>
      <rect x="2.5" y="2.5" width="104.342" height="104.342" rx="52.171" fill="none"/>
    </g>
    <g id="mode-landscape" transform="translate(163 156.352)">
      <circle id="Ellipse_16" data-name="Ellipse 16" cx="5.018" cy="5.018" r="5.018" transform="translate(27.097 11.062)" fill="#2ea4fc"/>
      <path id="Path_201" data-name="Path 201" d="M30.05,16a2.007,2.007,0,0,0-2.007,2.007v4.014a6.022,6.022,0,0,1-6.022,6.022H18.007a2.007,2.007,0,0,0,0,4.014h4.014A10.048,10.048,0,0,0,32.058,22.022V18.007A2.007,2.007,0,0,0,30.05,16Z" transform="translate(16.115 16.115)" fill="#2ea4fc"/>
      <path id="Path_202" data-name="Path 202" d="M2.007,16.058A2.007,2.007,0,0,0,4.014,14.05V10.036a6.022,6.022,0,0,1,6.022-6.022H14.05A2.007,2.007,0,0,0,14.05,0H10.036A10.048,10.048,0,0,0,0,10.036V14.05A2.007,2.007,0,0,0,2.007,16.058Z" fill="#2ea4fc"/>
      <path id="Path_203" data-name="Path 203" d="M14.05,28.043H10.036a6.022,6.022,0,0,1-6.022-6.022V18.007a2.007,2.007,0,0,0-4.014,0v4.014A10.048,10.048,0,0,0,10.036,32.058H14.05a2.007,2.007,0,1,0,0-4.014Z" transform="translate(0 16.115)" fill="#2ea4fc"/>
      <path id="Path_204" data-name="Path 204" d="M22.022,0H18.007a2.007,2.007,0,0,0,0,4.014h4.014a6.022,6.022,0,0,1,6.022,6.022V14.05a2.007,2.007,0,1,0,4.014,0V10.036A10.048,10.048,0,0,0,22.022,0Z" transform="translate(16.115)" fill="#2ea4fc"/>
      <path id="Path_205" data-name="Path 205" d="M33.52,25.818,18.293,10.592a6.022,6.022,0,0,0-8.514,0l-4.6,4.6A4.014,4.014,0,0,0,4,18.032v5.191a6.022,6.022,0,0,0,6.022,6.022H32.1a2.007,2.007,0,0,0,1.419-3.426Z" transform="translate(4.029 8.892)" fill="#2ea4fc"/>
    </g>
  </g>
</svg>
