<svg xmlns="http://www.w3.org/2000/svg" xmlns:xlink="http://www.w3.org/1999/xlink" width="268.875" height="268.875" viewBox="0 0 268.875 268.875">
  <defs>
    <filter id="Path_17" x="0" y="0" width="268.875" height="268.875" filterUnits="userSpaceOnUse">
      <feOffset dy="3" input="SourceAlpha"/>
      <feGaussianBlur stdDeviation="25.5" result="blur"/>
      <feFlood flood-color="#2ea4fc"/>
      <feComposite operator="in" in2="blur"/>
      <feComposite in="SourceGraphic"/>
    </filter>
  </defs>
  <g transform="matrix(1, 0, 0, 1, 0, 0)" filter="url(#Path_17)">
    <path id="Path_17-2" data-name="Path 17" d="M40.968,0A40.968,40.968,0,1,0,81.936,40.968,40.968,40.968,0,0,0,40.968,0ZM54.624,49.8A3.414,3.414,0,1,1,50,54.824q-.1-.1-.2-.2L40.968,45.8l-8.829,8.829A3.414,3.414,0,0,1,27.312,49.8l8.829-8.829-8.829-8.829a3.414,3.414,0,0,1,4.827-4.827l8.829,8.829L49.8,27.312a3.414,3.414,0,0,1,5.024,4.624q-.1.1-.2.2L45.8,40.968Z" transform="translate(134.44 73.5) rotate(45)" fill="#fff"/>
  </g>
</svg>
